<mxfile host="app.diagrams.net" modified="2023-11-02T20:48:58.920Z" agent="Mozilla/5.0 (Macintosh; Intel Mac OS X 10_15_7) AppleWebKit/605.1.15 (KHTML, like Gecko) Version/16.5 Safari/605.1.15" version="22.0.8" etag="H7emlULSJUxk1eSj2Gc9" type="github">
  <diagram name="PÃ¡gina-1" id="yKmaqPDa1m_XpfC77KCf">
    <mxGraphModel>
      <root>
        <mxCell id="0" />
        <mxCell id="1" parent="0" />
      </root>
    </mxGraphModel>
  </diagram>
</mxfile>
